<svg height="496pt" viewBox="0 0 496 496" width="496pt" xmlns="http://www.w3.org/2000/svg"><path d="m0 0v352h136v128h-104v16h432v-16h-104v-128h136v-352zm152 352h16v128h-16zm160 0v128h-128v-128zm32 128h-16v-128h16zm136-144h-464v-320h464zm0 0"/><path d="m0 480h16v16h-16zm0 0"/><path d="m480 480h16v16h-16zm0 0"/><path d="m56 160c13.230469 0 24-10.769531 24-24 0-4.136719-1.144531-7.976562-3-11.375l41.816406-46.464844c2.832032 1.175782 5.925782 1.839844 9.183594 1.839844 1.886719 0 3.710938-.273438 5.472656-.6875l47.625 74.070312c-3.144531 4.066407-5.097656 9.097657-5.097656 14.617188 0 13.230469 10.769531 24 24 24s24-10.769531 24-24c0-2.367188-.449219-4.609375-1.089844-6.769531l49.234375-35.804688c-.023437.855469-.144531 1.71875-.144531 2.574219 0 52.9375 43.0625 96 96 96s96-43.0625 96-96-43.0625-96-96-96c-34.710938 0-66.175781 18.425781-83.289062 48.335938-11.671876 1.617187-20.710938 11.558593-20.710938 23.664062 0 2.367188.449219 4.609375 1.097656 6.769531l-51.523437 37.460938c-3.863281-2.65625-8.535157-4.230469-13.574219-4.230469-1.886719 0-3.710938.273438-5.472656.6875l-47.625-74.070312c3.144531-4.066407 5.097656-9.097657 5.097656-14.617188 0-13.230469-10.769531-24-24-24s-24 10.769531-24 24c0 4.136719 1.144531 7.976562 3 11.375l-41.824219 46.464844c-2.824219-1.175782-5.929687-1.839844-9.175781-1.839844-13.230469 0-24 10.769531-24 24s10.769531 24 24 24zm320-111.59375c10.007812 1 19.441406 3.914062 28.015625 8.265625l-28.015625 28.015625zm0 159.1875v-71.59375h71.59375c-3.761719 37.734375-33.859375 67.832031-71.59375 71.59375zm35.3125-87.59375 28.023438-28.023438c4.351562 8.582032 7.265624 18.015626 8.265624 28.023438zm19.183594-41.808594-41.808594 41.808594h-12.6875v-12.6875l41.808594-41.808594c4.6875 3.742188 8.945312 8 12.6875 12.6875zm-70.496094-29.640625v159.042969c-40.367188-4.027344-72-38.1875-72-79.59375 13.230469 0 24-10.769531 24-24 0-8.320312-4.265625-15.65625-10.710938-19.960938 13.261719-20.160156 34.6875-33.101562 58.710938-35.488281zm-72 47.449219c4.414062 0 8 3.59375 8 8s-3.585938 8-8 8-8-3.59375-8-8 3.585938-8 8-8zm-80 72c0 4.40625-3.585938 8-8 8s-8-3.59375-8-8 3.585938-8 8-8 8 3.59375 8 8zm-80-120c4.414062 0 8 3.59375 8 8s-3.585938 8-8 8-8-3.59375-8-8 3.585938-8 8-8zm-72 80c4.414062 0 8 3.59375 8 8s-3.585938 8-8 8-8-3.59375-8-8 3.585938-8 8-8zm0 0"/><path d="m32 304h16v16h-16zm0 0"/><path d="m64 304h160v16h-160zm0 0"/><path d="m32 272h16v16h-16zm0 0"/><path d="m64 272h160v16h-160zm0 0"/><path d="m32 240h16v16h-16zm0 0"/><path d="m64 240h160v16h-160zm0 0"/><path d="m32 208h16v16h-16zm0 0"/><path d="m64 208h160v16h-160zm0 0"/></svg>